# xmcd
# Copyright (C) 1995-1998 Ti Kan
#
# Track frame offsets:
#       150
#       16448
#       31259
#       51705
#       68031
#       85938
#       103027
#       120178
#       143630
#       159687
#       177304
#       197901
#       217026
#       235653
#       258139
#       275264
#       290136
#
# Disc length: 4086 seconds
#
# Revision: 16
# Processed by: cddbd v1.5.1PL0 Copyright (c) Steve Scherf et al.
# Submitted via: CD-Transfer v1.0
#
DISCID=f70ff411
DTITLE=Shepard Kenny Wayne - Euro Express 584
DYEAR=04
DGENRE=
TTITLE0=My Prerogative
TTITLE1=Rumors
TTITLE2=Halftime
TTITLE3=Lose My Breath
TTITLE4=Drive Me Crazy (Radio Mix)
TTITLE5=Senorita (Clean Radio Edit)
TTITLE6=Let's Go
TTITLE7=Three Evils (Embodied In Love And Shadow)
TTITLE8=I Don't Wanna Know
TTITLE9=Look What You've Done
TTITLE10=Fall To Pieces (Album Vers.)
TTITLE11=Let Go
TTITLE12=Answer In The Sky
TTITLE13=Live Like You Were Dying
TTITLE14=Ocean Breathes Salty
TTITLE15=Stop The World
TTITLE16=Alive (Radio Edit)
EXTD=
EXTT0=
EXTT1=
EXTT2=
EXTT3=
EXTT4=
EXTT5=
EXTT6=
EXTT7=
EXTT8=
EXTT9=
EXTT10=
EXTT11=
EXTT12=
EXTT13=
EXTT14=
EXTT15=
EXTT16=
PLAYORDER=
